<svg id="Layer_1" data-name="Layer 1" xmlns="http://www.w3.org/2000/svg" viewBox="0 0 168 144"><defs><style>.cls-1{fill:#00853e;}</style></defs><title>We Mean Green Fund_Line_Lockup</title><path class="cls-1" d="M31,73.46h2.71a3.62,3.62,0,0,1,3.86,3.62v0a3.63,3.63,0,0,1-3.86,3.63H31Zm2.71,6.11a2.37,2.37,0,0,0,2.52-2.45v0a2.38,2.38,0,0,0-2.52-2.47H32.28v4.94Z"/><path class="cls-1" d="M39,73.46h1.28v7.27H39Z"/><path class="cls-1" d="M41.37,73.46h1.41L45,79.05l2.18-5.59h1.38l-3,7.32H44.39Z"/><path class="cls-1" d="M49.64,73.46h1.28v7.27H49.64Z"/><path class="cls-1" d="M52.16,79.67l.77-.91a3.34,3.34,0,0,0,2.29.94c.79,0,1.29-.36,1.29-.91v0c0-.52-.29-.8-1.64-1.11-1.55-.38-2.42-.83-2.42-2.17v0a2.22,2.22,0,0,1,2.48-2.11,4,4,0,0,1,2.64.91l-.69,1a3.29,3.29,0,0,0-2-.75c-.75,0-1.18.39-1.18.86v0c0,.56.33.81,1.72,1.15s2.33.92,2.33,2.12v0c0,1.36-1.06,2.17-2.59,2.17A4.46,4.46,0,0,1,52.16,79.67Z"/><path class="cls-1" d="M59.15,73.46h1.28v7.27H59.15Z"/><path class="cls-1" d="M61.84,77.12v0a3.8,3.8,0,0,1,7.6,0v0a3.8,3.8,0,0,1-7.6,0Zm6.26,0v0a2.5,2.5,0,0,0-2.47-2.59,2.46,2.46,0,0,0-2.45,2.57v0a2.49,2.49,0,0,0,2.47,2.58A2.45,2.45,0,0,0,68.1,77.12Z"/><path class="cls-1" d="M70.77,73.46H72l3.89,5v-5H77.1v7.27H76l-4-5.17v5.17H70.77Z"/><path class="cls-1" d="M81.35,77.12v0a3.8,3.8,0,0,1,7.59,0v0a3.72,3.72,0,0,1-3.81,3.75A3.68,3.68,0,0,1,81.35,77.12Zm6.25,0v0a2.49,2.49,0,0,0-2.47-2.59,2.46,2.46,0,0,0-2.45,2.57v0a2.49,2.49,0,0,0,2.47,2.58A2.45,2.45,0,0,0,87.6,77.12Z"/><path class="cls-1" d="M90.28,73.46h5.41v1.17H91.56v2h3.66v1.16H91.56v3H90.28Z"/><path class="cls-1" d="M30.52,91.34l.76-.91a3.38,3.38,0,0,0,2.3.94c.79,0,1.28-.36,1.28-.91v0c0-.52-.29-.8-1.63-1.11-1.55-.37-2.42-.83-2.42-2.17v0A2.22,2.22,0,0,1,33.29,85a4,4,0,0,1,2.63.92l-.68,1a3.31,3.31,0,0,0-2-.75c-.75,0-1.19.39-1.19.87v0c0,.56.34.81,1.73,1.14s2.33.92,2.33,2.12v0c0,1.35-1.07,2.16-2.59,2.16A4.46,4.46,0,0,1,30.52,91.34Z"/><path class="cls-1" d="M39.22,86.32h-2.3V85.14h5.89v1.18h-2.3V92.4H39.22Z"/><path class="cls-1" d="M43.84,89.32V85.14h1.28v4.13c0,1.35.69,2.07,1.83,2.07s1.83-.68,1.83-2V85.14h1.27v4.12a2.9,2.9,0,0,1-3.12,3.25A2.86,2.86,0,0,1,43.84,89.32Z"/><path class="cls-1" d="M51.6,85.14h2.71a3.62,3.62,0,0,1,3.86,3.61v0a3.64,3.64,0,0,1-3.86,3.63H51.6Zm2.71,6.1a2.37,2.37,0,0,0,2.52-2.45v0a2.39,2.39,0,0,0-2.52-2.47H52.88v4.94Z"/><path class="cls-1" d="M59.51,85.14h5.38v1.14H60.78v1.89h3.64v1.14H60.78v2h4.16V92.4H59.51Z"/><path class="cls-1" d="M66.25,85.14h1.18l3.89,5v-5h1.26V92.4H71.51l-4-5.17V92.4H66.25Z"/><path class="cls-1" d="M76,86.32h-2.3V85.14h5.89v1.18h-2.3V92.4H76Z"/><path class="cls-1" d="M86.23,85.09h1.19l3.19,7.31H89.26l-.73-1.75H85.09l-.75,1.75H83Zm1.83,4.43L86.8,86.61l-1.24,2.91Z"/><path class="cls-1" d="M91.44,85.14h5.41V86.3H92.72v2h3.66v1.16H92.72v3H91.44Z"/><path class="cls-1" d="M98,85.14h5.41V86.3H99.32v2H103v1.16H99.32v3H98Z"/><path class="cls-1" d="M106.17,85.09h1.19l3.19,7.31H109.2l-.73-1.75H105l-.74,1.75H103ZM108,89.52l-1.25-2.91-1.25,2.91Z"/><path class="cls-1" d="M111.25,85.14h1.27V92.4h-1.27Z"/><path class="cls-1" d="M114.26,85.14h3.23a3,3,0,0,1,2.1.72,2.23,2.23,0,0,1,.6,1.57v0a2.18,2.18,0,0,1-1.73,2.2l2,2.75h-1.5l-1.79-2.53h-1.6V92.4h-1.27Zm3.14,3.6c.91,0,1.5-.48,1.5-1.22v0c0-.78-.57-1.2-1.51-1.2h-1.86v2.44Z"/><path class="cls-1" d="M120.86,91.34l.76-.91a3.36,3.36,0,0,0,2.3.94c.79,0,1.28-.36,1.28-.91v0c0-.52-.29-.8-1.64-1.11-1.54-.37-2.41-.83-2.41-2.17v0A2.22,2.22,0,0,1,123.63,85a4,4,0,0,1,2.63.92l-.68,1a3.31,3.31,0,0,0-2-.75c-.75,0-1.19.39-1.19.87v0c0,.56.33.81,1.73,1.14s2.33.92,2.33,2.12v0c0,1.35-1.07,2.16-2.59,2.16A4.46,4.46,0,0,1,120.86,91.34Z"/><path class="cls-1" d="M30.54,96.81h.89l2.08,6,2-6.07h.67l2,6.07,2.08-6h.86l-2.59,7.32h-.7l-2-5.9-2,5.9h-.69Z"/><path class="cls-1" d="M45,103.5a2.22,2.22,0,0,0,1.69-.75l.5.44a2.77,2.77,0,0,1-2.21,1,2.81,2.81,0,0,1-.1-5.61,2.56,2.56,0,0,1,2.5,2.85c0,.07,0,.15,0,.28H43.13A1.88,1.88,0,0,0,45,103.5Zm1.57-2.43a1.76,1.76,0,0,0-1.71-1.8,1.86,1.86,0,0,0-1.75,1.8Z"/><path class="cls-1" d="M52.46,96.81h.83l2.65,4,2.64-4h.83v7.26h-.82V98.19L56,102.08h0L53.26,98.2v5.87h-.8Z"/><path class="cls-1" d="M63.9,103.5a2.26,2.26,0,0,0,1.7-.75l.49.44a2.76,2.76,0,0,1-2.21,1,2.81,2.81,0,0,1-.1-5.61,2.56,2.56,0,0,1,2.5,2.85c0,.07,0,.15,0,.28H62A1.86,1.86,0,0,0,63.9,103.5Zm1.57-2.43a1.76,1.76,0,0,0-1.71-1.8,1.85,1.85,0,0,0-1.74,1.8Z"/><path class="cls-1" d="M67.48,102.52v0c0-1.16.94-1.76,2.3-1.76a5.83,5.83,0,0,1,1.64.23v-.17c0-1-.58-1.45-1.59-1.45a3.73,3.73,0,0,0-1.63.39L68,99.08a4.38,4.38,0,0,1,2-.45,2.38,2.38,0,0,1,1.74.59,2.12,2.12,0,0,1,.56,1.57v3.28h-.79v-.8a2.36,2.36,0,0,1-1.93.92A1.81,1.81,0,0,1,67.48,102.52Zm4-.42v-.5a5.79,5.79,0,0,0-1.57-.22c-1,0-1.57.43-1.57,1.08v0c0,.67.63,1.06,1.35,1.06A1.61,1.61,0,0,0,71.43,102.1Z"/><path class="cls-1" d="M74.1,98.71h.8v.93a2.05,2.05,0,0,1,1.84-1,2,2,0,0,1,2.05,2.15v3.33H78v-3.13a1.42,1.42,0,0,0-1.48-1.62A1.58,1.58,0,0,0,74.9,101v3.07h-.8Z"/><path class="cls-1" d="M83.84,100.46v0a3.64,3.64,0,0,1,3.64-3.75,3.85,3.85,0,0,1,2.71,1l-.53.62a3.14,3.14,0,0,0-2.21-.83,2.84,2.84,0,0,0-2.76,3v0a2.81,2.81,0,0,0,2.87,3,3.41,3.41,0,0,0,2.1-.73v-1.8H87.45v-.74h3v2.9a4.44,4.44,0,0,1-2.92,1.11A3.56,3.56,0,0,1,83.84,100.46Z"/><path class="cls-1" d="M92.36,98.71h.8v1.4a2.3,2.3,0,0,1,2.19-1.49v.86h-.06a2.17,2.17,0,0,0-2.13,2.46v2.13h-.8Z"/><path class="cls-1" d="M99.14,103.5a2.22,2.22,0,0,0,1.69-.75l.5.44a2.77,2.77,0,0,1-2.21,1,2.81,2.81,0,0,1-.1-5.61,2.57,2.57,0,0,1,2.5,2.85c0,.07,0,.15,0,.28H97.25A1.88,1.88,0,0,0,99.14,103.5Zm1.57-2.43A1.77,1.77,0,0,0,99,99.27a1.86,1.86,0,0,0-1.74,1.8Z"/><path class="cls-1" d="M105.49,103.5a2.22,2.22,0,0,0,1.69-.75l.5.44a2.77,2.77,0,0,1-2.21,1,2.81,2.81,0,0,1-.1-5.61,2.57,2.57,0,0,1,2.5,2.85c0,.07,0,.15,0,.28H103.6A1.88,1.88,0,0,0,105.49,103.5Zm1.57-2.43a1.77,1.77,0,0,0-1.72-1.8,1.86,1.86,0,0,0-1.74,1.8Z"/><path class="cls-1" d="M109.47,98.71h.8v.93a2.05,2.05,0,0,1,1.84-1,2,2,0,0,1,2,2.15v3.33h-.8v-3.13a1.42,1.42,0,0,0-1.48-1.62,1.58,1.58,0,0,0-1.61,1.68v3.07h-.8Z"/><path class="cls-1" d="M119.53,96.81h5.22v.76h-4.4v2.59h3.93v.75h-3.93v3.16h-.82Z"/><path class="cls-1" d="M126.32,102V98.71h.8v3.13a1.43,1.43,0,0,0,1.49,1.62,1.58,1.58,0,0,0,1.6-1.68V98.71H131v5.36h-.79v-.93a2,2,0,0,1-1.83,1A2,2,0,0,1,126.32,102Z"/><path class="cls-1" d="M133,98.71h.79v.93a2.05,2.05,0,0,1,1.84-1,2,2,0,0,1,2.05,2.15v3.33h-.79v-3.13a1.43,1.43,0,0,0-1.49-1.62A1.58,1.58,0,0,0,133.8,101v3.07H133Z"/><path class="cls-1" d="M139.29,101.41v0a2.64,2.64,0,0,1,2.57-2.8,2.4,2.4,0,0,1,2,1.15V96.5h.8v7.57h-.8V103a2.4,2.4,0,0,1-2,1.2A2.62,2.62,0,0,1,139.29,101.41Zm4.65,0v0A2,2,0,0,0,142,99.31a1.9,1.9,0,0,0-1.89,2.07v0a1.93,1.93,0,0,0,1.89,2.07A2,2,0,0,0,143.94,101.4Z"/><rect class="cls-1" x="22.68" y="73.4" width="1.72" height="30.67"/><polyline class="cls-1" points="89.12 36.2 86.36 43.81 90.57 43.81 91.61 40.89 95.73 40.88 95.72 61.75 93.39 61.76 91.69 66.45 103.28 66.45 105.03 61.76 101.77 61.75 101.77 40.89 106.62 40.89 106.6 43.8 109.52 43.8 112.28 36.19 89.12 36.2"/><path class="cls-1" d="M42.43,36.19,40.69,40.9h3V54.58c0,2.51-.46,3.91-1.69,5.16a6.19,6.19,0,0,1-4.29,1.59,6.89,6.89,0,0,1-5-1.87c-1.15-1.14-1.71-3-1.71-5.74V36.19l-8.54,0L20.67,40.9l3.63,0v13c0,12.22,9.55,13.17,12.46,13.17,7.56,0,12.45-4.88,12.45-12.43l0-13.75H51.4l1.69-4.71H42.43"/><path class="cls-1" d="M83.69,40.88l0,25.58H80.14L62.41,47.78c0,2.48,0,14,0,14h3.27L64,66.48H53.27L55,61.76h1.85V40.9h-3.9l1.69-4.71h6.57s12.7,13.25,17.1,17.9c0-1.43,0-13.19,0-13.19H75.08l1.68-4.72h11L86,40.9l-2.35,0"/><path class="cls-1" d="M112.78,42.32l.07,0a.55.55,0,0,0,.17-.17l0-.08s0-.08,0-.13c0-.33-.19-.49-.58-.49h-.66v1.75H112v-.79h.42l.51.79h.22l-.51-.79A.6.6,0,0,0,112.78,42.32Zm-.4-.11H112v-.62h.46c.15,0,.41,0,.41.32S112.64,42.21,112.38,42.21Z"/><path class="cls-1" d="M112.39,40.82a1.48,1.48,0,1,0,1.48,1.48A1.47,1.47,0,0,0,112.39,40.82Zm0,2.78a1.31,1.31,0,0,1,0-2.61,1.26,1.26,0,0,1,1.28,1.3A1.28,1.28,0,0,1,112.4,43.6Z"/></svg>